<?xml version="1.0" encoding="iso-8859-1"?>
<!-- Generator: Adobe Illustrator 19.0.0, SVG Export Plug-In . SVG Version: 6.00 Build 0)  -->
<svg version="1.1" id="Layer_1" xmlns="http://www.w3.org/2000/svg" xmlns:xlink="http://www.w3.org/1999/xlink" x="0px" y="0px"
	 viewBox="0 0 495.85 495.85" style="enable-background:new 0 0 495.85 495.85;" xml:space="preserve">
<path style="fill:#F9BA48;" d="M256.301,235.266l30.848-21.592c26.696-18.688,42.6-49.232,42.6-81.816l0,0c0-24.304-19.696-44-44-44
	l0,0c-24.304,0-44,19.696-44,44v12v-12c0-24.304-19.696-44-44-44l0,0c-24.304,0-44,19.696-44,44l0,0
	c0,32.592,15.904,63.128,42.6,81.816l30.848,21.592c4.264,2.984,9.344,4.584,14.552,4.584l0,0
	C246.957,239.858,252.037,238.25,256.301,235.266z"/>
<path style="fill:#333333;" d="M489.877,151.85h-67.032C407.669,66.77,333.365,1.162,244.205,0.018
	C156.509-1.214,80.077,60.802,61.733,147.186c-4.496,21.128-5.056,42.92-1.68,64.832l-54.08,96.728l59.904,17.272v97.832h80v72h16
	v-88h-80v-93.864l-52.104-15.024l46.984-84.024l-0.472-2.784c-3.536-20.848-3.168-41.592,1.104-61.64
	C94.149,71.562,164.605,14.93,244.005,16.018c80.424,1.024,147.592,59.512,162.56,135.832H273.877l14.4-19.2l-12.8-9.592l-27.6,36.8
	l27.6,36.8l12.8-9.592l-14.4-19.2h135.04c0.512,5.296,0.816,10.656,0.816,16.08l0.024,29.192
	c0.04,64.096-31.512,124.096-84.416,160.504l-3.464,2.376V495.85h16V384.378c55.152-39.608,87.912-103.304,87.872-171.264
	l-0.024-29.184c0-5.416-0.28-10.768-0.752-16.072h64.904V151.85z"/>
<g>
</g>
<g>
</g>
<g>
</g>
<g>
</g>
<g>
</g>
<g>
</g>
<g>
</g>
<g>
</g>
<g>
</g>
<g>
</g>
<g>
</g>
<g>
</g>
<g>
</g>
<g>
</g>
<g>
</g>
</svg>
