<?xml version="1.0" standalone="no"?>
<!DOCTYPE svg PUBLIC "-//W3C//DTD SVG 20010904//EN"
 "http://www.w3.org/TR/2001/REC-SVG-20010904/DTD/svg10.dtd">
<svg version="1.0" xmlns="http://www.w3.org/2000/svg"
 width="935.000000pt" height="960.000000pt" viewBox="0 0 935.000000 960.000000"
 preserveAspectRatio="xMidYMid meet">
<metadata>
Created by potrace 1.15, written by Peter Selinger 2001-2017
</metadata>
<g transform="translate(0.000000,960.000000) scale(0.100000,-0.100000)"
fill="#000000" stroke="none">
<path d="M109 9565 c17 -20 44 -49 61 -65 16 -16 30 -34 30 -39 0 -5 8 -12 18
-15 11 -4 25 -17 32 -31 7 -14 22 -27 32 -31 25 -8 59 -45 52 -56 -3 -5 3 -12
15 -15 12 -3 21 -12 21 -19 0 -8 4 -14 9 -14 13 0 131 -122 131 -136 0 -7 14
-24 30 -37 17 -14 30 -30 30 -36 0 -6 6 -11 14 -11 7 0 20 -10 29 -22 8 -13
42 -52 76 -88 33 -36 61 -68 61 -72 0 -12 44 -53 52 -51 5 2 8 -4 8 -12 0 -8
-4 -15 -9 -15 -5 0 -11 -9 -14 -19 -3 -12 -20 -24 -46 -32 -22 -7 -41 -16 -41
-21 0 -4 -6 -8 -14 -8 -12 0 -30 -33 -27 -52 1 -14 -73 -25 -279 -42 -19 -2
-55 -6 -79 -11 -24 -4 -55 -8 -70 -9 -14 -2 -72 -9 -129 -16 l-102 -14 0 -942
0 -943 40 -28 c22 -15 40 -30 40 -33 0 -3 39 -46 86 -95 47 -50 107 -113 132
-140 26 -28 81 -87 122 -132 41 -44 96 -105 122 -134 123 -142 152 -175 169
-191 26 -26 69 -22 130 10 48 25 55 32 60 67 9 53 -4 92 -51 150 -22 28 -43
58 -46 68 -4 9 -12 17 -19 17 -16 0 -48 47 -40 60 3 5 0 7 -7 5 -8 -3 -21 7
-31 24 -21 36 -21 38 0 44 10 3 5 5 -12 6 -16 1 -35 5 -40 9 -16 11 -39 61
-32 68 3 4 -1 14 -10 23 -13 12 -17 13 -21 3 -3 -9 -14 -2 -33 20 -27 29 -28
33 -12 40 10 3 12 7 6 7 -7 1 -13 8 -13 17 0 13 -3 14 -14 5 -10 -9 -17 -7
-27 6 -11 13 -11 17 -1 20 17 6 15 30 -4 37 -13 5 -15 16 -10 66 6 55 5 60
-13 60 -11 0 -32 12 -48 28 -15 15 -33 26 -40 24 -7 -2 -13 6 -13 17 0 30 -41
105 -50 91 -7 -12 -50 68 -50 92 0 14 24 32 80 60 l35 18 -72 -4 c-40 -2 -73
1 -73 5 0 5 -6 9 -14 9 -18 0 -14 69 6 84 8 6 18 20 21 31 4 11 27 41 52 67
25 26 45 52 45 58 0 5 9 10 20 10 12 0 17 5 14 14 -3 8 -1 17 5 21 6 3 11 0
11 -7 0 -8 5 -6 11 5 5 9 16 17 24 17 8 0 19 10 26 22 10 18 13 19 20 5 8 -13
48 -28 76 -29 5 0 13 -4 20 -10 13 -10 33 -3 33 13 0 5 -6 9 -13 9 -7 0 -27
25 -45 55 -26 46 -29 57 -16 62 11 4 12 8 3 19 -9 11 -4 22 25 50 21 20 56 46
79 59 37 19 42 26 42 56 0 19 4 37 10 41 5 4 2 14 -8 26 -20 22 -23 82 -4 82
19 0 38 45 25 58 -11 11 34 20 112 25 19 2 42 7 50 12 8 5 58 11 110 12 140 4
190 17 249 65 43 35 51 47 52 77 1 36 5 73 11 121 2 17 -1 24 -11 22 -11 -2
-13 6 -8 38 4 29 2 40 -8 40 -16 0 -23 19 -17 43 3 12 11 17 23 14 11 -3 19 0
19 7 0 39 70 56 70 17 1 -13 3 -13 16 4 8 11 13 28 10 38 -5 20 14 23 32 5 10
-10 15 -10 22 2 6 10 10 11 10 3 0 -16 57 -46 71 -37 6 3 13 -3 16 -15 3 -12
10 -21 15 -21 5 0 6 -4 3 -10 -3 -5 0 -10 8 -10 18 0 18 29 1 55 -16 23 -19
91 -4 100 16 10 12 25 -6 25 -10 0 -14 -6 -10 -15 3 -9 0 -15 -9 -15 -8 0 -15
9 -15 20 0 11 -7 20 -16 20 -8 0 -12 -4 -9 -10 3 -5 -1 -10 -10 -10 -9 0 -14
4 -11 9 3 5 -8 14 -24 21 -28 12 -41 30 -22 30 14 0 14 109 1 149 -7 19 -18
42 -26 49 -19 20 -16 38 11 65 18 18 23 31 19 47 -4 15 -2 21 4 17 6 -4 8 3 6
17 -3 13 0 27 6 31 8 4 5 15 -8 34 -15 21 -17 31 -9 39 9 9 8 18 0 37 -6 14
-8 25 -3 25 5 0 12 -6 14 -12 3 -7 4 1 2 17 -2 17 -6 58 -9 92 -6 62 -5 63 24
78 35 18 36 22 13 47 -9 10 -12 18 -7 18 5 0 10 18 12 40 1 22 -2 40 -8 40
-18 0 -11 18 10 23 24 6 27 45 5 53 -10 4 -13 13 -10 25 4 11 3 28 0 39 -6 20
-15 20 -702 20 l-695 0 31 -35z"/>
<path d="M2665 9588 c-2 -7 -6 -33 -9 -58 -3 -25 -12 -83 -20 -130 -8 -47 -24
-143 -35 -215 -12 -71 -24 -141 -27 -155 -4 -14 -8 -35 -9 -47 -2 -13 -7 -42
-11 -65 -4 -24 -8 -50 -9 -58 -3 -23 -15 -110 -21 -155 -3 -22 -7 -49 -8 -60
-2 -11 -5 -27 -8 -35 -4 -8 -10 -44 -14 -80 -4 -36 -9 -78 -10 -95 -6 -52 -34
-239 -40 -270 -3 -16 -7 -46 -9 -65 -2 -19 -8 -55 -14 -81 -5 -25 -13 -81 -17
-126 l-7 -81 59 -60 c235 -238 297 -307 278 -310 -24 -5 -30 -11 -38 -43 -4
-21 2 -36 28 -69 l33 -42 -23 -46 c-13 -26 -24 -65 -25 -87 -1 -22 -7 -60 -15
-85 -7 -25 -20 -82 -27 -126 -17 -95 -21 -104 -51 -104 -12 0 -32 -9 -44 -20
-24 -23 -29 -35 -9 -24 6 4 -7 -12 -30 -35 -23 -22 -47 -41 -52 -41 -5 0 -20
-13 -33 -29 -30 -37 -136 -108 -201 -133 -100 -40 -107 -43 -107 -50 0 -5 -6
-8 -12 -8 -22 -1 -67 -47 -74 -77 -4 -15 -14 -33 -23 -40 -9 -6 -13 -15 -9
-19 4 -4 4 -12 -2 -19 -5 -6 -12 -31 -15 -55 -6 -53 -14 -62 -85 -108 -54 -35
-56 -35 -177 -38 -148 -4 -177 -14 -252 -93 -50 -51 -66 -61 -141 -86 -47 -15
-97 -34 -112 -41 -16 -8 -28 -12 -28 -9 0 5 -27 -9 -118 -64 -29 -17 -55 -31
-58 -31 -3 0 -31 -18 -62 -39 -53 -37 -67 -41 -212 -65 -159 -26 -243 -46
-455 -107 -16 -4 -77 -25 -135 -44 -58 -20 -120 -42 -137 -48 l-33 -10 0 -128
0 -128 40 -11 c21 -6 42 -15 45 -20 5 -8 -28 -1 -67 15 -17 7 -18 -10 -18
-274 l0 -281 38 0 c28 0 45 -7 62 -25 13 -14 20 -26 17 -26 -4 -1 -13 -2 -19
-3 -7 -1 -12 -9 -10 -19 2 -12 -2 -15 -14 -10 -22 8 -54 40 -54 52 0 6 -4 13
-10 16 -7 4 -10 -319 -10 -961 l0 -968 25 34 c14 18 28 43 31 54 4 12 19 39
34 61 15 22 37 60 50 84 12 24 32 53 43 65 29 28 181 127 232 150 22 11 42 22
45 25 3 4 30 22 60 41 30 19 57 38 58 42 2 5 10 8 17 8 7 0 26 11 42 24 15 13
39 27 53 31 13 4 50 25 81 46 31 22 60 39 63 39 4 0 22 11 39 24 62 47 117 66
197 66 109 0 140 18 163 95 11 33 21 67 25 75 3 8 4 21 3 28 -2 10 5 12 27 7
16 -3 59 2 98 11 55 14 76 25 104 55 64 69 100 116 100 131 0 30 32 41 133 49
144 11 189 34 227 114 8 17 22 41 32 54 10 13 18 32 18 41 0 20 68 85 99 95
23 7 51 -9 51 -30 0 -6 18 -26 40 -43 44 -36 60 -78 60 -156 0 -43 -5 -54 -41
-93 -38 -42 -41 -48 -37 -92 3 -25 17 -71 32 -101 l27 -55 -40 -35 c-22 -19
-47 -54 -56 -77 -16 -39 -15 -46 4 -118 l21 -77 -34 -38 c-44 -49 -80 -112
-101 -177 -9 -28 -25 -59 -36 -69 -10 -9 -19 -23 -19 -31 0 -16 -5 -16 -31 -2
-19 9 -19 9 -10 -10 6 -11 11 -23 11 -26 0 -4 -26 -34 -59 -68 -120 -127 -159
-219 -114 -269 16 -18 16 -20 -11 -42 -24 -18 -29 -31 -31 -75 -2 -29 -6 -55
-9 -58 -10 -11 -7 -23 7 -23 18 0 40 -37 24 -43 -8 -3 -5 -11 9 -23 31 -28
130 -225 140 -279 3 -19 10 -38 15 -41 5 -3 9 -26 9 -52 0 -26 4 -53 9 -61 6
-9 4 -29 -5 -54 -17 -48 -17 -47 -1 -47 17 0 19 -56 2 -70 -9 -7 -15 -8 -20 0
-3 5 -13 10 -21 10 -19 0 -18 -39 1 -60 14 -16 13 -19 -15 -32 -27 -13 -29
-17 -15 -28 19 -16 20 -40 0 -40 -8 0 -15 -4 -15 -10 0 -5 -7 -7 -15 -4 -12 5
-15 -5 -15 -55 0 -35 -4 -61 -10 -61 -6 0 -8 10 -4 24 6 24 4 25 -48 24 -29
-1 -62 -7 -73 -15 -11 -7 -33 -13 -50 -12 -29 1 -29 1 -5 9 24 8 24 8 3 9 -16
1 -23 7 -23 22 0 15 -4 19 -16 15 -9 -3 -22 -6 -30 -6 -18 0 -18 -15 1 -34 8
-8 15 -19 15 -24 0 -6 22 -9 49 -9 52 2 67 -4 56 -23 -5 -7 -20 -9 -41 -5 -28
5 -34 3 -35 -12 -2 -34 3 -56 16 -69 7 -7 16 -29 19 -49 4 -19 11 -35 17 -35
6 0 7 -4 4 -10 -3 -5 -1 -10 4 -10 13 0 51 -32 51 -42 0 -5 -5 -7 -11 -6 -6 2
-14 -3 -17 -11 -3 -10 0 -12 12 -8 9 4 16 1 16 -5 0 -9 3 -9 12 0 7 7 19 12
27 12 11 0 10 -3 -4 -14 -16 -12 -17 -16 -6 -29 7 -9 9 -22 5 -28 -5 -9 -13
-5 -28 13 -12 15 -30 28 -41 30 -17 3 -21 -4 -27 -47 -11 -85 -9 -151 7 -188
13 -31 13 -40 -2 -83 -9 -27 -24 -62 -34 -79 -10 -16 -22 -56 -28 -88 -10 -56
-35 -98 -94 -162 -11 -11 -56 -65 -100 -120 -45 -55 -84 -102 -87 -105 -41
-36 -172 -251 -186 -307 -4 -13 -10 -23 -15 -23 -5 0 -9 -10 -9 -23 0 -13 -5
-28 -12 -35 -9 -9 67 -12 345 -12 311 0 357 2 357 15 0 8 5 15 10 15 6 0 10 9
10 20 0 12 16 37 35 57 19 20 35 42 35 49 0 7 8 18 18 23 10 5 24 21 32 35 7
14 19 26 26 26 7 0 10 8 7 20 -3 11 0 20 6 20 6 0 11 6 11 13 0 7 9 19 20 27
11 8 20 19 20 25 0 5 14 23 30 38 17 16 30 35 30 42 0 7 9 15 19 18 11 3 33
32 52 70 19 40 49 80 76 103 23 20 43 41 43 46 0 5 6 16 14 23 8 8 17 37 21
65 5 33 12 50 21 50 8 0 14 10 14 23 0 12 7 50 17 82 9 33 16 71 15 85 0 31
16 62 29 54 8 -5 111 32 224 81 17 7 55 23 85 36 30 12 67 30 81 40 21 14 46
17 145 17 115 -1 191 5 264 21 48 11 56 6 80 -44 11 -24 27 -46 35 -49 8 -3
15 -12 15 -19 0 -8 6 -20 14 -26 34 -29 126 -397 126 -507 0 -34 89 -220 136
-285 19 -26 34 -56 34 -68 0 -15 6 -21 21 -21 11 0 33 -8 47 -19 38 -26 76
-30 130 -15 58 17 116 64 141 113 26 50 43 148 39 225 -2 56 1 67 26 100 33
44 51 53 71 36 23 -19 29 -5 10 24 -14 21 -15 29 -5 41 11 13 10 14 -2 10 -13
-5 -27 9 -130 127 -9 11 -20 33 -23 49 -4 16 -11 31 -16 34 -5 4 -9 12 -9 20
0 8 -5 26 -12 42 -6 15 -10 32 -9 37 1 5 -2 12 -7 15 -6 3 -24 43 -41 88 l-32
82 20 38 c18 37 24 40 118 67 166 47 512 200 567 250 15 15 29 26 32 26 3 0
24 18 47 39 43 40 65 56 195 143 39 27 72 54 72 61 0 6 24 31 53 53 76 59 114
119 137 221 11 47 25 94 31 105 19 35 62 78 78 78 12 0 13 2 4 8 -10 6 -6 21
15 60 15 28 30 52 33 52 12 0 239 -244 239 -257 0 -7 5 -13 11 -13 5 0 23 -14
39 -32 16 -17 32 -29 36 -25 7 7 -17 36 -157 187 -121 130 -159 173 -159 181
0 3 28 21 63 39 104 56 206 137 207 165 0 15 50 17 55 2 6 -17 28 -280 30
-347 0 -30 6 -64 12 -74 8 -15 6 -32 -9 -75 -11 -31 -22 -63 -25 -71 -9 -25
-9 -140 -1 -140 4 0 8 7 8 15 0 8 13 26 29 41 18 16 31 39 35 65 3 21 11 39
16 39 6 0 10 11 10 25 0 14 5 25 10 25 6 0 10 -5 10 -11 0 -6 7 -3 16 5 8 9
20 14 25 10 5 -3 12 2 15 10 4 11 19 16 45 16 43 0 52 -14 17 -25 -14 -4 -18
-8 -11 -11 10 -4 9 -11 -3 -29 -8 -13 -18 -55 -21 -94 -3 -39 -10 -71 -14 -71
-5 0 -9 -5 -9 -10 0 -6 8 -5 20 2 10 7 23 8 27 4 4 -5 2 -11 -4 -13 -18 -6
-16 -23 2 -23 8 0 15 5 15 10 0 6 5 10 10 10 6 0 10 -7 10 -15 0 -8 -5 -15
-11 -15 -5 0 -8 -4 -5 -9 3 -5 -1 -11 -9 -15 -8 -3 -15 -14 -15 -25 0 -11 -5
-23 -10 -26 -15 -9 -12 -58 6 -111 9 -26 18 -59 20 -72 3 -14 8 -30 11 -35 7
-12 35 31 39 62 16 130 48 276 79 356 14 39 33 97 41 130 9 33 19 76 24 95 5
19 10 58 12 85 1 28 7 56 12 63 5 8 11 39 12 70 4 112 53 310 81 326 10 5 34
25 53 43 61 57 103 93 111 93 4 0 11 10 14 21 4 12 31 47 61 77 30 31 57 64
60 74 3 11 11 17 17 15 12 -4 52 62 43 71 -3 3 -6 0 -6 -6 0 -7 -7 -12 -15
-12 -8 0 -15 -5 -15 -11 0 -8 -4 -8 -14 0 -11 10 -16 8 -21 -8 -3 -11 -32 -42
-63 -68 -64 -54 -102 -93 -102 -103 0 -6 -44 -30 -55 -30 -12 0 -3 46 14 74
11 17 20 34 21 38 4 36 14 69 21 74 5 3 9 14 9 26 0 11 16 38 35 59 19 22 35
47 35 57 0 19 72 97 144 156 65 52 85 88 79 135 -8 57 25 188 67 272 22 41 43
93 49 115 5 21 21 86 35 144 14 58 34 130 46 160 12 30 27 69 32 87 6 18 17
34 24 37 7 3 104 -89 228 -217 l216 -222 29 18 c30 18 57 24 31 7 -13 -8 -12
-10 2 -10 10 0 27 9 38 20 11 11 26 20 33 20 7 0 22 7 34 15 20 14 23 14 33
-4 15 -29 12 -41 -9 -41 -15 0 -20 -9 -23 -45 -3 -43 -2 -44 22 -38 20 5 23 4
14 -8 -6 -8 -11 -25 -12 -38 0 -13 -6 -27 -11 -30 -6 -4 -10 -15 -9 -26 1 -27
-5 -49 -17 -57 -5 -4 -6 -10 -2 -14 3 -4 13 -1 21 5 11 9 19 9 34 0 24 -15 68
0 109 39 16 15 30 27 33 27 3 0 20 15 39 32 19 18 39 31 45 30 6 -1 12 8 14
21 3 21 22 32 22 12 0 -19 17 -10 31 17 28 54 97 103 143 103 14 0 26 5 26 11
0 14 72 2 83 -14 5 -7 5 3 2 20 -5 26 -3 33 9 33 9 0 16 5 16 10 0 6 -7 10
-15 10 -8 0 -15 5 -15 10 0 13 13 13 27 -1 7 -7 25 -9 47 -5 35 7 35 8 21 30
-18 27 -11 36 28 36 41 0 94 57 73 78 -12 12 -11 17 5 33 23 23 35 24 43 4 6
-17 36 -21 36 -5 0 6 9 10 20 10 27 0 25 14 -2 27 -21 10 -19 11 22 21 25 5
35 10 23 11 -32 1 -29 19 5 23 15 2 27 8 27 13 1 18 27 58 61 93 19 19 34 39
34 45 0 5 17 26 38 46 21 20 53 55 71 79 18 23 46 49 62 58 16 8 29 21 29 29
0 8 7 15 15 15 8 0 15 -9 15 -19 0 -38 27 -35 49 7 10 19 9 22 -7 22 -12 0
-22 9 -25 22 -5 18 10 38 78 105 47 46 85 85 85 87 0 3 138 142 324 325 l146
143 0 307 c-1 291 -2 305 -18 283 -9 -13 -26 -34 -37 -47 -11 -14 -42 -57 -70
-97 -27 -39 -61 -84 -75 -98 -14 -15 -32 -40 -40 -55 -8 -16 -38 -59 -67 -95
-29 -35 -58 -76 -65 -90 -17 -33 -19 -36 -75 -101 -44 -52 -123 -169 -123
-183 0 -3 -8 -15 -17 -25 -10 -11 -23 -26 -28 -33 -53 -68 -90 -108 -105 -113
-11 -3 -38 4 -62 16 -120 61 -140 97 -137 247 3 103 2 109 -29 167 -18 33 -32
65 -32 71 0 16 -146 157 -220 212 -36 27 -93 64 -128 83 -55 30 -62 37 -58 59
13 67 17 86 22 100 12 32 15 70 5 70 -6 0 -11 5 -11 10 0 6 6 10 14 10 14 0
43 66 34 76 -11 10 -87 -75 -99 -111 -16 -48 -28 -67 -40 -59 -5 2 -19 -2 -33
-11 -21 -14 -28 -14 -49 -3 -32 17 -102 81 -122 111 -15 24 -12 57 7 57 5 0
23 13 40 28 l30 29 -12 59 c-6 32 -16 72 -23 88 -8 23 -8 31 1 34 7 2 12 8 12
12 0 5 -12 2 -27 -6 -50 -25 -55 -15 -15 29 42 44 69 78 88 112 8 14 22 20 44
20 42 0 61 -26 36 -50 -27 -27 -5 -41 36 -23 18 9 66 26 106 38 51 15 82 31
102 53 17 18 30 35 30 39 0 5 15 25 33 45 19 21 36 46 40 55 8 22 -67 138 -89
138 -13 0 -11 6 10 25 15 14 26 31 23 38 -2 6 13 34 34 61 22 27 39 54 39 60
0 6 21 30 47 54 48 42 87 54 110 31 9 -9 11 -2 9 25 -3 36 -3 36 35 36 67 0
126 21 140 49 30 60 71 79 99 46 17 -21 37 -19 50 5 6 11 8 20 4 20 -4 0 2 8
13 18 39 34 13 125 -38 136 -27 5 -29 9 -29 49 0 24 7 58 16 75 8 17 17 44 20
59 2 16 11 46 19 68 21 58 24 155 9 280 -15 126 -19 145 -45 201 -11 22 -19
49 -19 59 0 10 -6 26 -14 34 -18 20 -46 104 -46 136 0 13 -4 26 -9 29 -4 3
-11 34 -14 68 -6 65 -49 200 -70 223 -7 7 -23 28 -37 46 -49 64 -146 157 -185
178 -22 11 -58 32 -80 46 -22 14 -51 30 -65 36 -65 28 -96 46 -129 73 -37 29
-135 79 -230 116 -30 11 -72 32 -95 45 -23 13 -68 31 -101 40 -33 9 -73 26
-88 37 -16 11 -64 27 -108 36 -68 13 -87 13 -137 2 -59 -14 -113 -36 -123 -52
-3 -5 -54 -11 -114 -13 -85 -3 -110 -7 -117 -19 -5 -9 -19 -16 -32 -16 -13 0
-35 -9 -48 -20 -14 -10 -28 -17 -31 -14 -3 3 -10 -4 -17 -15 -6 -12 -28 -30
-50 -41 -22 -11 -47 -31 -55 -44 -9 -13 -34 -36 -55 -51 -22 -15 -42 -37 -46
-49 -4 -11 -21 -40 -38 -62 -17 -23 -38 -51 -46 -63 -8 -11 -19 -21 -25 -21
-5 -1 -30 -28 -55 -61 -25 -33 -54 -70 -65 -82 -11 -12 -33 -44 -49 -72 -16
-27 -44 -66 -62 -85 -123 -128 -152 -159 -181 -193 -17 -21 -35 -48 -39 -60
-4 -12 -17 -35 -30 -50 -13 -16 -24 -35 -24 -42 0 -24 -47 -66 -84 -76 -20 -5
-36 -14 -36 -19 0 -6 -7 -10 -15 -10 -23 0 -18 -19 8 -31 20 -9 47 -50 47 -73
0 -5 12 -25 27 -44 31 -41 34 -103 9 -164 -17 -40 -21 -78 -8 -78 7 0 45 42
115 125 18 22 53 79 77 128 24 48 47 87 51 87 4 0 10 12 13 26 5 18 20 31 51
45 25 11 49 28 54 38 6 10 24 24 41 31 16 7 30 18 30 24 0 15 55 48 64 38 4
-4 12 1 17 11 6 9 17 17 24 17 8 0 15 5 15 10 0 6 5 10 10 10 6 0 28 13 49 28
32 24 55 31 123 37 144 15 180 13 212 -12 17 -14 43 -23 63 -23 34 0 88 -31
76 -43 -3 -4 2 -9 11 -13 9 -3 16 -17 16 -30 0 -17 8 -27 24 -34 13 -5 27 -13
30 -18 3 -6 31 -24 61 -41 30 -17 59 -40 65 -51 6 -11 16 -20 23 -20 12 0 57
-48 57 -62 0 -4 8 -8 18 -8 18 0 112 -92 112 -110 0 -14 239 -250 254 -250 12
0 56 -63 56 -79 0 -6 9 -16 21 -25 15 -10 19 -20 14 -38 -4 -15 -3 -19 3 -10
7 11 10 10 16 -3 8 -22 0 -34 -31 -46 -20 -7 -24 -14 -19 -32 17 -59 19 -87 4
-87 -8 0 -23 9 -33 20 -10 11 -22 17 -27 14 -5 -3 -12 3 -15 15 -3 12 -12 21
-19 21 -8 0 -14 6 -14 13 0 16 -117 89 -215 134 -22 10 -42 20 -45 23 -9 9
-87 50 -95 50 -4 0 -1 -7 6 -16 16 -20 154 -114 167 -114 15 0 131 -110 137
-131 9 -28 36 -59 51 -59 14 0 104 -87 104 -100 0 -5 -5 -12 -10 -15 -6 -4 -7
-11 -4 -17 4 -6 -1 -8 -15 -3 -12 4 -21 2 -21 -4 0 -6 -8 -11 -17 -11 -16 -1
-16 -2 1 -15 17 -13 18 -18 7 -42 -9 -19 -9 -29 -2 -31 6 -2 11 -10 11 -18 0
-18 -30 -17 -54 1 -11 8 -39 15 -62 15 -24 0 -45 4 -48 9 -3 5 -23 11 -43 15
-21 3 -70 11 -109 17 -89 15 -113 9 -170 -46 -25 -25 -50 -45 -55 -45 -5 0 -9
-10 -10 -22 0 -13 -3 -17 -6 -10 -7 18 -28 15 -82 -12 -42 -22 -51 -33 -78
-93 -41 -92 -46 -106 -44 -120 1 -7 -3 -13 -9 -13 -5 0 -10 -8 -10 -19 0 -10
-7 -24 -15 -31 -8 -7 -15 -23 -15 -36 0 -12 -5 -26 -11 -29 -5 -4 -14 -18 -19
-31 -5 -13 -16 -24 -25 -24 -8 0 -15 -4 -15 -10 0 -5 -7 -10 -15 -10 -17 0
-59 -62 -69 -103 -4 -18 -2 -35 5 -44 10 -12 10 -16 -2 -24 -8 -5 -10 -9 -5
-9 5 0 4 -6 -2 -13 -19 -23 -25 -92 -11 -118 7 -13 12 -27 11 -31 -1 -3 19
-16 43 -28 25 -12 45 -28 45 -35 0 -27 -42 -26 -138 3 -53 17 -112 33 -130 37
-23 5 -32 11 -28 21 5 14 -5 18 -33 14 -13 -1 -13 1 -2 14 12 14 9 16 -28 16
-34 0 -41 3 -41 20 0 11 -5 20 -11 20 -22 0 -81 57 -102 98 -21 44 -72 90 -85
78 -13 -14 -10 -43 10 -83 12 -24 26 -43 31 -43 5 0 4 -7 -3 -15 -6 -8 -9 -23
-5 -34 5 -17 3 -19 -21 -12 -24 6 -95 1 -133 -10 -20 -6 -33 47 -15 62 20 17
18 22 -18 43 -17 11 -50 38 -72 61 -52 53 -94 75 -146 75 -47 0 -130 -34 -130
-53 0 -7 -9 -19 -20 -27 -24 -18 -25 -24 -2 -71 15 -34 22 -38 64 -44 27 -4
50 -11 53 -16 3 -5 25 -13 48 -20 23 -6 49 -17 57 -24 8 -7 56 -34 105 -59 91
-46 140 -83 163 -124 16 -29 15 -42 -3 -42 -25 0 -17 -22 18 -55 18 -16 41
-42 50 -57 17 -28 17 -28 -7 -28 -14 0 -27 4 -30 9 -3 5 -30 15 -58 21 -29 7
-55 16 -58 19 -11 13 -111 43 -126 37 -11 -4 -12 -10 -4 -25 14 -27 13 -41 -4
-41 -25 0 -37 -25 -21 -46 26 -35 19 -68 -19 -87 -37 -17 -46 -14 -46 15 0 10
-4 18 -10 18 -5 0 -10 25 -10 56 0 36 -4 53 -11 49 -6 -4 -13 1 -15 12 -3 10
-15 23 -27 28 -12 6 -24 19 -26 30 -2 11 -8 23 -15 27 -8 6 -7 8 2 8 9 0 5 11
-11 33 -42 56 -75 179 -68 255 3 32 2 32 -39 28 -40 -3 -68 -15 -39 -17 20 -1
-22 -17 -47 -18 -13 -1 -26 9 -35 27 -8 15 -18 30 -24 34 -6 5 -2 8 7 8 12 0
17 7 15 23 -1 16 3 21 15 19 23 -4 33 17 13 24 -13 5 -14 9 -4 15 7 4 14 27
16 51 5 68 8 81 21 105 11 19 10 25 -8 43 -11 11 -24 20 -29 20 -11 0 -12 140
-2 155 11 14 28 80 41 153 6 35 20 80 30 100 11 21 22 52 26 70 6 31 0 38 -30
33 -22 -5 -58 11 -91 40 -42 37 -45 68 -15 145 10 29 22 85 25 125 3 41 8 85
11 99 6 30 53 187 64 215 28 69 45 101 66 120 13 12 24 25 24 29 0 4 9 16 20
28 43 46 13 71 -53 43 -23 -10 -62 -27 -87 -38 -25 -11 -49 -22 -55 -23 -13
-2 -155 -59 -215 -85 -75 -33 -110 -53 -127 -71 -9 -10 -30 -18 -48 -18 -20 0
-38 -8 -51 -23 -12 -13 -76 -47 -145 -76 -136 -58 -145 -64 -154 -101 -6 -28
-5 -29 349 -388 190 -192 208 -214 194 -228 -12 -13 -22 -14 -54 -5 -31 9 -79
50 -244 216 -113 113 -212 205 -221 205 -28 0 -48 -34 -120 -206 -38 -93 -76
-182 -84 -199 -7 -16 -19 -50 -27 -73 l-13 -44 -270 7 c-148 3 -335 2 -415 -4
-130 -8 -155 -7 -240 10 -145 31 -293 26 -392 -12 -29 -12 -55 0 -117 56 -31
28 -33 33 -27 75 3 25 15 81 26 125 11 44 42 179 70 300 28 121 62 265 75 320
31 126 74 312 91 390 7 33 19 87 28 120 21 82 86 354 92 385 4 25 38 166 55
230 5 19 22 91 38 160 55 231 102 425 107 443 5 16 -23 17 -496 17 -392 0
-502 -3 -505 -12z m2815 -2498 c0 -5 -7 -29 -15 -52 -8 -24 -14 -52 -14 -63 0
-11 -9 -54 -21 -95 -12 -41 -24 -93 -27 -115 -2 -22 -8 -49 -13 -60 -18 -42
-29 -110 -19 -113 6 -3 6 -8 0 -16 -5 -6 -11 -29 -13 -51 -2 -22 -7 -46 -12
-53 -4 -6 -5 -16 -2 -20 3 -5 -1 -32 -9 -62 -11 -42 -11 -57 -2 -74 21 -35 15
-61 -13 -61 -20 0 -26 6 -28 30 -2 16 -7 32 -11 35 -21 15 -46 140 -44 225 2
156 60 309 187 498 36 53 56 70 56 47z m1604 -535 c9 -19 21 -35 26 -35 6 0
10 -6 10 -13 0 -15 81 -107 95 -107 5 0 28 -9 52 -21 28 -14 43 -27 43 -40 0
-14 7 -19 25 -19 22 0 25 -4 25 -34 0 -19 -4 -38 -10 -41 -5 -3 -10 -17 -10
-30 0 -13 -4 -27 -10 -30 -5 -3 -10 -10 -10 -16 0 -5 5 -9 10 -9 6 0 10 7 10
15 0 20 10 19 25 -2 15 -21 38 -8 30 18 -4 10 -2 19 3 19 16 0 21 -12 12 -35
-8 -21 -55 -75 -66 -75 -2 0 -19 -15 -37 -32 -36 -37 -61 -56 -162 -126 -87
-61 -156 -77 -176 -41 -10 19 -8 25 11 39 27 21 20 57 -13 62 -23 3 -45 40
-53 86 -2 15 -6 37 -9 49 -7 29 23 103 41 103 10 0 14 15 14 60 0 33 4 60 10
60 6 0 10 9 10 19 0 11 5 21 10 23 6 2 13 21 17 43 3 22 13 48 21 58 11 13 13
23 5 40 -25 54 25 67 51 12z m666 -654 c0 -16 -12 -41 -19 -41 -4 0 -29 -21
-56 -47 -47 -44 -49 -50 -48 -96 1 -38 -2 -47 -13 -43 -10 4 -14 -3 -14 -23 0
-21 -6 -30 -22 -35 -18 -4 -20 -8 -10 -18 17 -17 15 -38 -5 -45 -26 -9 -63
-44 -63 -59 0 -7 16 -24 36 -38 l37 -25 -26 -6 c-14 -4 -31 -4 -38 0 -8 6 -10
-1 -7 -24 2 -17 2 -31 0 -31 -23 0 -94 49 -108 75 -25 47 -15 119 22 155 l29
27 13 -21 c12 -19 12 -19 7 10 -5 26 -2 34 20 48 14 9 25 14 25 11 0 -3 9 -1
20 5 11 6 18 15 15 20 -6 10 29 50 43 50 4 0 8 8 9 18 2 19 63 88 75 84 3 -1
12 12 20 28 9 21 20 30 35 30 13 0 23 -4 23 -9z m-399 -852 c123 -127 245
-253 272 -280 26 -27 47 -54 47 -59 0 -6 6 -10 14 -10 10 0 14 -9 13 -26 -1
-15 4 -29 11 -32 11 -3 12 0 3 17 -16 30 3 26 23 -4 10 -16 12 -25 5 -25 -6 0
-8 -7 -5 -17 10 -25 -15 -1 -382 361 -213 210 -252 253 -252 277 0 18 5 29 14
29 7 0 114 -104 237 -231z m-5607 -3505 c9 -3 16 -15 16 -25 0 -17 16 -24 43
-20 4 0 7 -8 7 -18 0 -10 7 -21 15 -25 8 -3 15 -12 15 -20 0 -10 6 -13 15 -10
8 4 17 -1 21 -10 3 -9 14 -16 24 -16 23 0 31 -21 20 -57 -7 -24 -8 -25 -9 -5
-1 12 -7 22 -16 22 -11 0 -15 -11 -15 -40 0 -22 -4 -40 -10 -40 -5 0 -10 16
-10 36 0 45 -51 96 -115 114 -25 7 -45 17 -45 21 0 5 -8 9 -17 9 -10 1 -28 16
-40 35 l-22 35 27 0 c15 0 34 5 42 10 17 11 32 12 54 4z"/>
<path d="M6258 7893 c-45 -7 -32 -26 44 -62 133 -65 267 -162 343 -250 39 -45
78 -84 88 -87 9 -3 22 -14 27 -25 6 -10 15 -19 21 -19 5 0 24 -15 41 -32 18
-18 42 -38 54 -44 19 -10 25 -8 43 17 27 36 22 61 -30 148 -53 88 -139 178
-201 210 -15 8 -40 26 -55 41 -34 33 -141 90 -158 84 -6 -3 -51 2 -99 11 -49
8 -89 14 -90 14 0 -1 -13 -4 -28 -6z"/>
<path d="M6225 7653 c-41 -8 -76 -26 -86 -45 -14 -26 -1 -79 26 -103 13 -11
25 -29 29 -40 7 -25 45 -51 47 -33 6 63 32 85 60 52 18 -22 20 -84 2 -84 -19
0 -16 -13 8 -33 11 -10 18 -25 15 -32 -3 -8 7 -23 25 -35 33 -24 30 -40 -7
-40 -13 0 -24 -5 -24 -10 0 -6 -8 -5 -20 2 -14 9 -22 10 -31 1 -8 -8 -2 -20
23 -46 46 -47 149 -73 271 -68 40 1 48 16 20 37 -17 13 -17 13 0 14 10 0 29 7
42 16 20 13 31 14 53 5 29 -12 96 -10 109 3 17 17 8 69 -14 84 -13 8 -23 18
-23 23 0 5 -11 27 -25 49 -14 22 -25 46 -25 55 0 8 -4 15 -9 15 -5 0 -12 11
-15 25 -4 15 -17 30 -31 35 -14 5 -25 14 -25 20 0 5 -6 10 -12 10 -7 0 -35 12
-63 26 -64 32 -111 49 -205 70 -41 9 -79 20 -85 23 -5 4 -19 6 -30 4z"/>
<path d="M8351 6726 c-12 -18 -21 -40 -21 -48 0 -17 -52 -78 -67 -78 -6 0 -14
-10 -18 -22 -4 -13 -8 -25 -10 -28 -12 -28 -15 -43 -18 -95 -6 -85 22 -173 68
-214 20 -17 42 -31 51 -31 21 0 88 -35 104 -55 12 -14 81 -55 93 -55 7 0 17
39 24 90 3 25 11 48 17 52 7 4 11 39 11 87 0 74 -2 82 -31 118 -18 22 -57 51
-95 70 -38 18 -71 43 -81 60 -25 39 -23 88 4 115 13 13 17 23 10 26 -6 2 -9 9
-6 17 12 29 -16 23 -35 -9z"/>
<path d="M6600 3221 c0 -5 6 -12 13 -15 6 -3 -1 -3 -18 1 -16 3 -27 2 -23 -2
4 -5 3 -14 -3 -21 -9 -10 -7 -15 5 -20 21 -8 21 -34 0 -34 -8 0 -12 -4 -9 -10
3 -5 -6 -19 -20 -32 -14 -12 -25 -28 -25 -35 0 -7 -10 -13 -22 -13 -21 -1 -22
-2 -5 -14 9 -7 17 -16 17 -20 0 -13 -81 -86 -96 -86 -8 0 -14 -6 -14 -12 0 -7
-16 -28 -35 -47 -26 -26 -32 -38 -24 -48 8 -9 8 -13 0 -13 -6 0 -11 -11 -11
-25 0 -15 -6 -25 -14 -25 -8 0 -22 -7 -31 -16 -12 -13 -14 -19 -4 -28 8 -8 13
-8 16 2 3 6 13 12 23 12 10 0 20 8 23 19 3 11 21 23 51 32 31 9 45 18 41 27
-2 7 2 15 10 18 8 4 15 12 15 20 0 8 5 14 10 14 6 0 10 7 10 16 0 11 6 14 20
9 15 -5 18 -3 14 9 -5 14 44 76 61 76 4 0 13 7 19 15 6 9 24 18 40 21 16 3 45
13 65 24 20 10 44 21 54 24 9 3 17 12 17 21 0 23 -41 81 -70 99 -14 8 -38 26
-54 41 -30 26 -46 32 -46 16z"/>
<path d="M1504 1322 c-38 -31 -85 -69 -104 -84 -19 -14 -44 -34 -55 -44 -11
-11 -47 -39 -80 -64 -33 -25 -77 -61 -98 -80 -21 -19 -48 -41 -61 -50 -23 -16
-241 -188 -413 -327 -57 -46 -111 -83 -121 -83 -9 0 -26 10 -37 23 -10 12 -55
63 -99 113 -45 50 -115 130 -156 178 -41 48 -86 100 -100 116 -27 30 -112 127
-153 175 -20 23 -26 26 -27 13 0 -10 9 -28 19 -40 91 -108 145 -168 152 -168
5 0 9 -5 9 -11 0 -5 30 -45 68 -88 37 -43 87 -101 111 -130 25 -30 50 -59 57
-66 39 -39 114 -136 114 -148 0 -8 -28 -37 -62 -65 -104 -85 -279 -226 -307
-247 -117 -87 -161 -128 -161 -147 0 -18 5 -16 48 18 26 21 52 43 59 49 15 13
85 69 281 225 179 142 176 141 225 78 14 -18 40 -49 59 -69 42 -45 72 -80 178
-204 47 -55 90 -104 96 -110 5 -5 22 -27 38 -47 18 -26 35 -38 52 -38 13 0 24
2 24 4 0 3 -17 22 -38 43 -42 41 -295 328 -380 430 -31 36 -52 70 -49 78 5 11
418 349 526 430 25 19 356 285 433 349 36 30 47 46 30 46 -5 0 -39 -26 -78
-58z"/>
</g>
</svg>
