<?xml version="1.0" encoding="iso-8859-1"?>
<!-- Generator: Adobe Illustrator 19.0.0, SVG Export Plug-In . SVG Version: 6.00 Build 0)  -->
<svg version="1.1" id="Layer_1" xmlns="http://www.w3.org/2000/svg" xmlns:xlink="http://www.w3.org/1999/xlink" x="0px" y="0px"
	 viewBox="0 0 496 496" style="enable-background:new 0 0 496 496;" xml:space="preserve">
<circle style="fill:#F9BA48;" cx="285.956" cy="216" r="96"/>
<g>
	<path style="fill:#333333;" d="M424.58,328h5.376v-16h-7.28c-0.424-5.28-0.72-10.6-0.72-16h8v-16h-8v-16h8
		c22.056,0,40-17.944,40-40c0-18.624-12.8-34.32-30.064-38.752L456.204,120h-58.248V80h32V24h-32V0h-64v14.896
		c-22.032-9.44-45.408-14.424-69.672-14.736c-0.784,0-1.552-0.008-2.328-0.008c-86.424,0-161.96,61.56-180.144,147.184
		c-4.496,21.128-5.056,42.92-1.68,64.832l-54.088,96.744l59.912,17.12V424h80v72h16v-88h-80v-94.032l-52.088-14.88l46.968-84
		l-0.472-2.784c-3.528-20.856-3.168-41.592,1.104-61.64c16.76-78.952,86.528-135.736,166.616-134.496
		c16.72,0.216,32.968,2.864,48.584,7.832h-10.712v56h32v17.44c-1.28-0.52-2.536-1.088-3.832-1.56l-5.544,15.016
		c3.192,1.176,6.304,2.552,9.376,4.016V120h-58.248l16.312,65.248c-17.264,4.432-30.064,20.128-30.064,38.752
		c0,22.056,17.944,40,40,40h8v16h-8v16h8c0,5.392-0.304,10.72-0.728,16h-7.272v14.776c-0.264,0.04-0.528,0.104-0.792,0.136
		l2.264,15.84c0.392-0.056,0.784-0.144,1.176-0.208c-10.544,48.208-33.128,84.72-33.424,85.184l-1.56,2.496l9.4,65.776h173.872
		l9.4-65.792l-1.576-2.496C460.388,427.2,433.156,383.448,424.58,328z M317.956,64V40h32V16h32v24h32v24h-32v56h-32V64H317.956z
		 M301.956,248c-13.232,0-24-10.768-24-24s10.768-24,24-24h10.248h77.752v-16h-81.752l-12-48h37.752h64h37.752l-16,64h10.248
		c13.232,0,24,10.768,24,24s-10.768,24-24,24h-8h-112H301.956z M325.956,264h80v16h-80V264z M325.956,296h80
		c0,5.408,0.272,10.728,0.664,16h-81.336C325.676,306.728,325.956,301.408,325.956,296z M439.02,480H292.892l-5.72-40h111.384v-16
		H291.668c9.464-17.888,25.792-53.608,31.88-96h84.808c7.512,52.704,30.88,94.96,37.28,105.712L439.02,480z"/>
	<path style="fill:#333333;" d="M175.348,151.552c-6.024,10.312-10.56,21.4-13.496,32.968l15.512,3.92
		c2.552-10.112,6.52-19.808,11.792-28.832L175.348,151.552z"/>
	<path style="fill:#333333;" d="M192.796,278.192l-13.296,8.896c6.624,9.904,14.6,18.832,23.696,26.56l10.36-12.2
		C205.58,294.696,198.604,286.864,192.796,278.192z"/>
	<path style="fill:#333333;" d="M158.012,219.912c0.36,11.968,2.384,23.776,6,35.096l15.232-4.872
		c-3.16-9.896-4.92-20.224-5.232-30.704L158.012,219.912z"/>
	<path style="fill:#333333;" d="M294.124,104.296l1.168-15.952c-11.744-0.848-23.904-0.064-35.52,2.336l3.264,15.672
		C273.188,104.232,283.86,103.544,294.124,104.296z"/>
	<path style="fill:#333333;" d="M233.732,116.896l-7.472-14.16c-10.536,5.56-20.248,12.576-28.872,20.848l11.08,11.544
		C216.012,127.896,224.508,121.76,233.732,116.896z"/>
	<path style="fill:#333333;" d="M239.884,318.12l-6.592,14.576c10.864,4.912,22.376,8.272,34.192,9.984l2.296-15.832
		C259.452,325.352,249.388,322.416,239.884,318.12z"/>
</g>
<g>
</g>
<g>
</g>
<g>
</g>
<g>
</g>
<g>
</g>
<g>
</g>
<g>
</g>
<g>
</g>
<g>
</g>
<g>
</g>
<g>
</g>
<g>
</g>
<g>
</g>
<g>
</g>
<g>
</g>
</svg>
